<svg width="614" height="316" viewBox="0 0 614 316" fill="none" xmlns="http://www.w3.org/2000/svg">
<path fill-rule="evenodd" clip-rule="evenodd" d="M351.486 68.55L351.623 68.5392C356.313 68.1911 360.413 70.1961 363.865 73.1976C365.657 71.5995 368.623 72.164 370.762 72.6392C377.308 74.0935 382.682 80.2928 385.922 85.8239C393.667 99.0172 397.561 115.159 399.171 130.254C400.154 139.463 401.154 161.851 392.125 167.227C390.067 168.46 387.599 168.816 385.278 168.213C377.712 166.325 375.285 156.407 373.713 149.801C372.205 143.468 371.188 136.743 370.211 130.286L370.067 129.336C369.197 123.391 368.248 117.457 367.219 111.536C365.385 101.547 363.451 91.3781 358.197 82.5701C354.608 88.0763 352.205 92.2719 349.209 98.2107C345.988 104.674 342.822 111.164 339.707 117.679C339.215 118.705 338.614 119.984 337.922 121.456C332.271 133.482 320.595 158.329 313.61 162.425C312.702 162.958 311.72 163.259 310.678 162.975C307.044 161.987 302.55 154.744 300.664 151.544C298.217 155.82 291.423 162.694 286.803 164.423C267.862 171.51 255.446 140.019 249.805 125.711C249.551 125.067 249.31 124.458 249.084 123.888C246.583 117.548 244.344 110.889 242.129 104.298C241.136 101.346 240.148 98.407 239.144 95.517C236.582 105.81 234.22 116.152 232.06 126.537C231.903 127.262 231.746 127.988 231.589 128.714C230.216 135.053 228.843 141.398 227.115 147.65L227.073 147.8C226.092 151.351 225.08 155.009 223.439 158.316C222.57 160.068 221.486 162.196 219.49 162.839C218.696 163.094 217.817 163.057 217.079 162.649C216.073 162.093 215.489 160.958 215.179 159.892C211.096 145.876 220.765 87.2214 227.743 74.682C228.387 73.5241 229.313 72.0774 230.674 71.7178C231.357 71.5376 232.03 71.6816 232.633 72.0307C235.815 73.8745 238.818 82.616 239.795 86.2327C240.068 85.1521 240.488 84.0887 240.902 83.0558C242.269 79.641 244.546 74.4461 248.203 72.9272C249.661 72.3215 251.116 72.4611 252.548 73.0673C261.857 77.0092 277.719 107.366 285.599 122.447C286.677 124.51 287.606 126.288 288.348 127.672C290.27 131.274 292.215 134.864 294.182 138.44C294.421 138.874 294.703 139.371 295.002 139.901C295.947 141.569 297.075 143.561 297.628 144.912C302.619 136.358 306.688 127.769 310.853 118.976C311.909 116.746 312.971 114.504 314.056 112.246L314.153 112.044C319.455 101.009 325.49 88.4496 333.382 79.0593C338.223 73.2995 343.82 69.1275 351.486 68.55ZM235.877 86.178C234.3 81.7366 232.36 76.2693 231.251 75.4949C224.055 88.3321 213.645 145.523 217.395 158.957C217.634 159.813 217.996 160.507 218.514 161.223C219.492 160.21 220.106 159.544 220.822 158.302C223.365 153.265 224.771 147.675 226.118 142.214C227.763 135.548 229.2 128.831 230.638 122.114C232.576 113.06 234.514 104.005 236.959 95.0746C237.274 93.9239 237.596 92.7906 237.965 91.6557C237.519 90.8056 236.754 88.6507 235.877 86.178ZM249.556 74.7392C249.983 74.7257 250.435 74.7298 250.851 74.8309C259.128 76.8414 275.795 107.541 282.68 120.223C283.385 121.521 283.987 122.631 284.468 123.502C285.31 125.028 286.15 126.558 286.989 128.088C290.263 134.053 293.54 140.024 297.014 145.868C296.62 146.393 296.153 147.116 295.697 147.823C295.374 148.324 295.055 148.819 294.772 149.227C292.202 152.93 290.108 155.518 286.518 158.196C285.869 158.609 285.16 158.986 284.453 159.289C282.092 160.299 280.024 160.369 277.616 159.386C264.163 153.9 251.679 119.036 246.671 105.05L246.48 104.516C245.872 102.819 245.291 101.104 244.71 99.3872C243.559 95.9913 242.406 92.5866 241.036 89.2971C241.194 88.8702 241.359 88.4124 241.533 87.9315C243.183 83.3591 245.587 76.7012 249.556 74.7392ZM357.348 81.5247C355.406 79.7264 353.908 78.3386 351.038 78.6707C344.184 79.618 337.546 88.3647 333.859 93.8619C327.801 102.895 322.753 112.525 317.705 122.157C312.592 131.911 307.479 141.666 301.313 150.806C301.551 151.175 301.794 151.555 302.043 151.945C304.015 155.034 306.334 158.665 308.89 160.967L308.99 161.049C309.807 161.719 310.616 162.381 311.752 162.28C313.663 162.11 316.099 159.406 317.231 157.947C321.817 152.035 325.611 144.887 329.03 138.254C332.88 130.783 336.505 123.183 340.129 115.585C343.084 109.391 346.039 103.197 349.115 97.0743C350.698 93.9514 352.302 90.8392 353.926 87.7382C354.029 87.5406 354.142 87.3243 354.261 87.0943C355.157 85.3707 356.456 82.8722 357.403 81.5753L357.348 81.5247ZM365.268 74.348C366.47 74.1928 367.119 74.174 368.345 74.4109C372.779 75.2679 376.564 78.8625 378.924 82.5481C389.699 99.3821 391.52 134.048 387.767 152.891C387.515 153.714 387.406 154.335 387.264 155.149L387.234 155.315C384.387 145.774 382.798 135.647 381.202 125.479C378.655 109.255 376.092 92.9268 368.378 78.7069C368.142 78.2715 367.563 77.5515 366.968 76.8106C366.166 75.8124 365.334 74.7764 365.268 74.348Z" fill="#D7FF31"/>
<path d="M151.632 235.5V204.161H152.197L157.085 216.07V235.5H151.632ZM151.632 195.073V191.625H156.083L170.499 226.537L180.778 203.283H181.405V215.443L172.567 235.5H168.43L151.632 195.073ZM184.539 235.5V191.625H189.992V235.5H184.539ZM194.692 227.603V224.594C194.692 221.878 195.758 219.893 197.889 218.64C198.558 218.305 201.127 217.511 205.598 216.258C210.571 214.879 213.057 213.667 213.057 212.622V211.432C213.057 210.429 212.806 209.509 212.305 208.674C211.344 207.086 209.881 206.292 207.917 206.292V201.466C210.801 201.466 213.203 202.385 215.125 204.224C217.173 206.229 218.197 208.569 218.197 211.244V228.417C218.238 229.713 218.803 230.402 219.889 230.486V235.437C217.8 235.437 216.107 234.706 214.812 233.244C213.141 234.664 210.842 235.396 207.917 235.437V230.548C208.294 230.548 208.69 230.528 209.108 230.486C211.741 230.068 213.057 228.501 213.057 225.785V218.577C211.971 219.162 209.881 219.83 206.789 220.583C202.82 221.544 200.584 222.254 200.083 222.714C199.623 223.132 199.372 223.8 199.331 224.719V226.412C199.372 229.086 201.211 230.465 204.846 230.548V235.437C202.256 235.437 199.999 234.769 198.077 233.432C195.821 231.844 194.692 229.901 194.692 227.603ZM195.131 209.99C195.131 207.984 195.925 206.188 197.513 204.6C199.56 202.51 202.026 201.466 204.909 201.466V206.355C204.115 206.355 203.363 206.522 202.653 206.856C200.73 207.775 199.769 209.405 199.769 211.745L195.131 209.99ZM223.211 226.6L228.163 225.66C228.163 227.54 229.144 229.023 231.108 230.11C232.069 230.569 232.989 230.82 233.866 230.862V235.813C229.813 235.813 226.784 234.351 224.778 231.426C223.733 229.88 223.211 228.271 223.211 226.6ZM223.524 211.181C223.524 207.378 225.258 204.558 228.727 202.719C230.398 201.842 232.069 201.403 233.741 201.403V206.292C231.819 206.292 230.335 207.086 229.291 208.674C228.748 209.468 228.476 210.303 228.476 211.181C228.476 212.518 229.521 213.604 231.61 214.44C233.198 215.109 236.269 215.986 240.824 217.073C243.665 217.658 245.692 219.057 246.903 221.272C247.53 222.442 247.843 223.758 247.843 225.221C247.843 229.232 246.235 232.199 243.017 234.121C241.137 235.249 238.985 235.813 236.561 235.813V230.862C238.484 230.862 240.092 230.193 241.388 228.856C242.307 227.895 242.767 226.767 242.767 225.471C242.767 223.8 241.116 222.463 237.815 221.46C236.979 221.209 235.642 220.854 233.804 220.395C231.84 219.935 230.419 219.559 229.541 219.266C226.366 218.013 224.444 216.112 223.775 213.563C223.608 212.811 223.524 212.017 223.524 211.181ZM236.499 206.355V201.403C240.092 201.403 242.996 202.74 245.211 205.414C246.59 207.128 247.279 208.924 247.279 210.805L242.328 211.62C242.328 209.321 241.074 207.713 238.567 206.793C237.815 206.501 237.125 206.355 236.499 206.355ZM250.163 207.044V201.967H254.299V191.124H259.627V201.967H263.638V207.107H259.627V225.095C259.627 228.062 260.839 229.713 263.262 230.047C263.722 230.131 264.182 230.172 264.641 230.172H265.519L266.71 235.5H264.453C259.314 235.458 256.159 233.536 254.989 229.734C254.571 228.313 254.362 226.558 254.362 224.469L254.299 207.044H250.163ZM269.467 226.224V210.679C269.509 208.757 270.428 206.856 272.225 204.976C274.398 202.761 277.031 201.633 280.123 201.591V206.543C278.117 206.543 276.55 207.42 275.422 209.175C274.962 209.927 274.732 210.617 274.732 211.244V215.506H288.772V211.244C288.772 209.363 287.811 207.984 285.889 207.107C285.012 206.689 284.113 206.48 283.194 206.48V201.591C286.077 201.591 288.647 202.615 290.903 204.662C292.784 206.459 293.745 208.444 293.787 210.617V220.583H274.732V226.224C274.732 227.394 275.401 228.48 276.738 229.483C277.825 230.235 278.974 230.611 280.185 230.611V235.5C276.383 235.5 273.395 233.954 271.222 230.862C270.052 229.232 269.467 227.686 269.467 226.224ZM283.194 235.5V230.548C285.701 230.548 287.581 229.462 288.835 227.289C289.086 226.83 289.274 226.391 289.399 225.973L293.849 227.603C293.097 230.486 291.384 232.659 288.71 234.121C286.996 235.04 285.158 235.5 283.194 235.5ZM298.989 235.5V201.591H304.316V206.229C305.403 204.391 307.033 203.033 309.205 202.155C310.375 201.696 311.524 201.466 312.653 201.466H313.781L312.527 206.605C310.229 206.647 308.182 207.88 306.385 210.303C305.006 212.226 304.316 214.21 304.316 216.258V235.5H298.989Z" fill="#D7FF31"/>
<path d="M327.632 235.5V204.161H328.197L333.085 216.07V235.5H327.632ZM327.632 195.073V191.625H332.083L346.499 226.537L356.778 203.283H357.405V215.443L348.567 235.5H344.43L327.632 195.073ZM360.539 235.5V191.625H365.992V235.5H360.539ZM371.507 196.953C371.507 195.658 372.113 194.738 373.325 194.195C373.743 194.028 374.161 193.944 374.578 193.944C375.832 193.944 376.751 194.529 377.336 195.699C377.503 196.117 377.587 196.535 377.587 196.953C377.587 198.206 377.002 199.126 375.832 199.711C375.414 199.878 374.996 199.961 374.578 199.961C373.283 199.961 372.343 199.376 371.758 198.206C371.591 197.789 371.507 197.371 371.507 196.953ZM371.946 235.5V202.469H377.211V235.5H371.946ZM382.852 235.5V210.742C382.852 208.736 383.75 206.773 385.547 204.85C387.762 202.594 390.499 201.466 393.758 201.466V206.668C391.627 206.668 389.997 207.504 388.869 209.175C388.409 209.886 388.18 210.617 388.18 211.369V235.5H382.852ZM396.516 206.668V201.466C400.402 201.466 403.431 203.033 405.604 206.167C406.774 207.796 407.359 209.321 407.359 210.742V235.5H402.031V211.369C402.031 210.074 401.384 208.924 400.088 207.922C399.044 207.086 397.853 206.668 396.516 206.668ZM411.621 226.224V210.742C411.663 208.486 412.687 206.396 414.692 204.474C416.656 202.594 418.955 201.654 421.587 201.654H426.539V206.731H421.65C419.937 206.731 418.537 207.504 417.45 209.05C416.991 209.76 416.761 210.429 416.761 211.056V226.098C416.761 227.435 417.513 228.585 419.017 229.546C419.895 230.131 420.793 230.423 421.712 230.423H426.539V235.5H421.775C418.056 235.5 415.173 233.891 413.125 230.674C412.123 229.086 411.621 227.603 411.621 226.224ZM429.547 235.5L429.61 191.187H435V235.5H429.547ZM438.824 226.6L443.775 225.66C443.775 227.54 444.757 229.023 446.721 230.11C447.682 230.569 448.601 230.82 449.479 230.862V235.813C445.426 235.813 442.396 234.351 440.39 231.426C439.346 229.88 438.824 228.271 438.824 226.6ZM439.137 211.181C439.137 207.378 440.871 204.558 444.339 202.719C446.011 201.842 447.682 201.403 449.353 201.403V206.292C447.431 206.292 445.948 207.086 444.903 208.674C444.36 209.468 444.088 210.303 444.088 211.181C444.088 212.518 445.133 213.604 447.222 214.44C448.81 215.109 451.881 215.986 456.436 217.073C459.278 217.658 461.304 219.057 462.516 221.272C463.143 222.442 463.456 223.758 463.456 225.221C463.456 229.232 461.847 232.199 458.63 234.121C456.749 235.249 454.598 235.813 452.174 235.813V230.862C454.096 230.862 455.705 230.193 457 228.856C457.919 227.895 458.379 226.767 458.379 225.471C458.379 223.8 456.729 222.463 453.428 221.46C452.592 221.209 451.255 220.854 449.416 220.395C447.452 219.935 446.032 219.559 445.154 219.266C441.978 218.013 440.056 216.112 439.388 213.563C439.22 212.811 439.137 212.017 439.137 211.181ZM452.111 206.355V201.403C455.705 201.403 458.609 202.74 460.824 205.414C462.202 207.128 462.892 208.924 462.892 210.805L457.94 211.62C457.94 209.321 456.687 207.713 454.18 206.793C453.428 206.501 452.738 206.355 452.111 206.355Z" fill="black"/>
</svg>
