<svg width="32" height="32" viewBox="215 68 185 100" fill="none" xmlns="http://www.w3.org/2000/svg">
<path fill-rule="evenodd" clip-rule="evenodd" d="M351.486 68.55L351.623 68.5392C356.313 68.1911 360.413 70.1961 363.865 73.1976C365.657 71.5995 368.623 72.164 370.762 72.6392C377.308 74.0935 382.682 80.2928 385.922 85.8239C393.667 99.0172 397.561 115.159 399.171 130.254C400.154 139.463 401.154 161.851 392.125 167.227C390.067 168.46 387.599 168.816 385.278 168.213C377.712 166.325 375.285 156.407 373.713 149.801C372.205 143.468 371.188 136.743 370.211 130.286L370.067 129.336C369.197 123.391 368.248 117.457 367.219 111.536C365.385 101.547 363.451 91.3781 358.197 82.5701C354.608 88.0763 352.205 92.2719 349.209 98.2107C345.988 104.674 342.822 111.164 339.707 117.679C339.215 118.705 338.614 119.984 337.922 121.456C332.271 133.482 320.595 158.329 313.61 162.425C312.702 162.958 311.72 163.259 310.678 162.975C307.044 161.987 302.55 154.744 300.664 151.544C298.217 155.82 291.423 162.694 286.803 164.423C267.862 171.51 255.446 140.019 249.805 125.711C249.551 125.067 249.31 124.458 249.084 123.888C246.583 117.548 244.344 110.889 242.129 104.298C241.136 101.346 240.148 98.407 239.144 95.517C236.582 105.81 234.22 116.152 232.06 126.537C231.903 127.262 231.746 127.988 231.589 128.714C230.216 135.053 228.843 141.398 227.115 147.65L227.073 147.8C226.092 151.351 225.08 155.009 223.439 158.316C222.57 160.068 221.486 162.196 219.49 162.839C218.696 163.094 217.817 163.057 217.079 162.649C216.073 162.093 215.489 160.958 215.179 159.892C211.096 145.876 220.765 87.2214 227.743 74.682C228.387 73.5241 229.313 72.0774 230.674 71.7178C231.357 71.5376 232.03 71.6816 232.633 72.0307C235.815 73.8745 238.818 82.616 239.795 86.2327C240.068 85.1521 240.488 84.0887 240.902 83.0558C242.269 79.641 244.546 74.4461 248.203 72.9272C249.661 72.3215 251.116 72.4611 252.548 73.0673C261.857 77.0092 277.719 107.366 285.599 122.447C286.677 124.51 287.606 126.288 288.348 127.672C290.27 131.274 292.215 134.864 294.182 138.44C294.421 138.874 294.703 139.371 295.002 139.901C295.947 141.569 297.075 143.561 297.628 144.912C302.619 136.358 306.688 127.769 310.853 118.976C311.909 116.746 312.971 114.504 314.056 112.246L314.153 112.044C319.455 101.009 325.49 88.4496 333.382 79.0593C338.223 73.2995 343.82 69.1275 351.486 68.55ZM235.877 86.178C234.3 81.7366 232.36 76.2693 231.251 75.4949C224.055 88.3321 213.645 145.523 217.395 158.957C217.634 159.813 217.996 160.507 218.514 161.223C219.492 160.21 220.106 159.544 220.822 158.302C223.365 153.265 224.771 147.675 226.118 142.214C227.763 135.548 229.2 128.831 230.638 122.114C232.576 113.06 234.514 104.005 236.959 95.0746C237.274 93.9239 237.596 92.7906 237.965 91.6557C237.519 90.8056 236.754 88.6507 235.877 86.178ZM249.556 74.7392C249.983 74.7257 250.435 74.7298 250.851 74.8309C259.128 76.8414 275.795 107.541 282.68 120.223C283.385 121.521 283.987 122.631 284.468 123.502C285.31 125.028 286.15 126.558 286.989 128.088C290.263 134.053 293.54 140.024 297.014 145.868C296.62 146.393 296.153 147.116 295.697 147.823C295.374 148.324 295.055 148.819 294.772 149.227C292.202 152.93 290.108 155.518 286.518 158.196C285.869 158.609 285.16 158.986 284.453 159.289C282.092 160.299 280.024 160.369 277.616 159.386C264.163 153.9 251.679 119.036 246.671 105.05L246.48 104.516C245.872 102.819 245.291 101.104 244.71 99.3872C243.559 95.9913 242.406 92.5866 241.036 89.2971C241.194 88.8702 241.359 88.4124 241.533 87.9315C243.183 83.3591 245.587 76.7012 249.556 74.7392ZM357.348 81.5247C355.406 79.7264 353.908 78.3386 351.038 78.6707C344.184 79.618 337.546 88.3647 333.859 93.8619C327.801 102.895 322.753 112.525 317.705 122.157C312.592 131.911 307.479 141.666 301.313 150.806C301.551 151.175 301.794 151.555 302.043 151.945C304.015 155.034 306.334 158.665 308.89 160.967L308.99 161.049C309.807 161.719 310.616 162.381 311.752 162.28C313.663 162.11 316.099 159.406 317.231 157.947C321.817 152.035 325.611 144.887 329.03 138.254C332.88 130.783 336.505 123.183 340.129 115.585C343.084 109.391 346.039 103.197 349.115 97.0743C350.698 93.9514 352.302 90.8392 353.926 87.7382C354.029 87.5406 354.142 87.3243 354.261 87.0943C355.157 85.3707 356.456 82.8722 357.403 81.5753L357.348 81.5247ZM365.268 74.348C366.47 74.1928 367.119 74.174 368.345 74.4109C372.779 75.2679 376.564 78.8625 378.924 82.5481C389.699 99.3821 391.52 134.048 387.767 152.891C387.515 153.714 387.406 154.335 387.264 155.149L387.234 155.315C384.387 145.774 382.798 135.647 381.202 125.479C378.655 109.255 376.092 92.9268 368.378 78.7069C368.142 78.2715 367.563 77.5515 366.968 76.8106C366.166 75.8124 365.334 74.7764 365.268 74.348Z" fill="#D7FF31"/>
</svg>
