<svg width="906" height="377" viewBox="0 0 906 377" fill="none" xmlns="http://www.w3.org/2000/svg">
<g clip-path="url(#clip0_590_6664)">
<rect width="838" height="315" transform="translate(0 62)" fill="white"/>
<path d="M149.332 354.713C132.828 354.713 116.812 351.832 101.285 346.07C85.8555 340.211 71.9883 331.861 59.6836 321.021C47.3789 310.182 37.6133 297.193 30.3867 282.057C23.1602 266.822 19.5469 249.83 19.5469 231.08C19.5469 212.721 22.916 196.021 29.6543 180.982C36.4902 165.943 45.8652 153.004 57.7793 142.164C69.791 131.324 83.6094 123.023 99.2344 117.262C114.957 111.402 131.656 108.473 149.332 108.473C167.984 108.473 185.318 111.305 201.334 116.969C217.447 122.535 231.51 130.689 243.521 141.432C255.631 152.076 265.055 165.064 271.793 180.396C278.629 195.631 282.047 212.916 282.047 232.252C282.047 241.725 281.07 250.758 279.117 259.352C277.262 267.848 274.576 275.855 271.061 283.375C282.975 287.281 292.74 289.234 300.357 289.234C300.455 289.234 300.504 291.432 300.504 295.826C300.602 300.123 300.65 305.494 300.65 311.939C300.748 318.287 300.797 324.684 300.797 331.129C300.895 337.574 300.943 342.994 300.943 347.389C300.943 351.686 300.943 353.834 300.943 353.834C296.451 354.42 291.959 354.713 287.467 354.713C276.334 354.713 265.543 352.857 255.094 349.146C244.742 345.436 234.684 340.455 224.918 334.205C202.555 347.877 177.359 354.713 149.332 354.713ZM166.178 179.225C160.904 179.225 155.24 181.715 149.186 186.695C143.229 191.578 137.613 197.926 132.34 205.738C127.164 213.453 122.916 221.656 119.596 230.348C116.275 238.941 114.615 246.9 114.615 254.225C114.615 261.256 116.471 267.066 120.182 271.656C123.99 276.246 130.338 278.541 139.225 278.541C141.861 278.541 144.596 277.809 147.428 276.344C150.357 274.879 153.287 272.926 156.217 270.484C152.604 266.383 149.039 262.232 145.523 258.033C142.008 253.834 138.492 249.635 134.977 245.436L150.943 221.559C155.533 224.586 160.221 227.613 165.006 230.641C169.791 233.668 174.576 236.646 179.361 239.576C182.486 233.326 185.025 227.027 186.979 220.68C188.932 214.332 189.908 208.424 189.908 202.955C189.908 196.119 188.102 190.455 184.488 185.963C180.875 181.471 174.771 179.225 166.178 179.225Z" fill="#00C0E8"/>
<path d="M325.834 350L442.143 127.93C444.975 122.559 449.369 118.408 455.326 115.479C461.283 112.451 467.484 110.938 473.93 110.938C479.691 110.938 485.307 112.256 490.775 114.893C496.342 117.529 500.639 121.582 503.666 127.051L628.471 350H509.672L500.443 326.855H437.162L429.252 350H325.834ZM444.34 280.42H491.654L469.242 217.139L444.34 280.42Z" fill="#00C0E8"/>
</g>
<path d="M812.982 350.115C792.182 358.514 769.672 362.713 745.453 362.713C728.852 362.713 712.738 360.174 697.113 355.096C681.586 350.018 667.621 342.596 655.219 332.83C642.914 323.064 633.1 311.053 625.775 296.795C618.549 282.537 614.936 266.229 614.936 247.869C614.936 228.436 618.354 210.711 625.189 194.695C632.123 178.582 641.938 164.715 654.633 153.094C667.328 141.375 682.367 132.342 699.75 125.994C717.133 119.646 736.371 116.473 757.465 116.473C761.371 116.473 766.303 116.668 772.26 117.059C778.314 117.449 784.564 118.182 791.01 119.256C797.455 120.232 803.266 121.697 808.441 123.65V199.236C801.996 196.795 795.404 195.574 788.666 195.574C778.607 195.574 769.33 198.064 760.834 203.045C752.338 207.928 745.551 214.52 740.473 222.82C735.395 231.121 732.855 240.35 732.855 250.506C732.855 260.564 734.809 268.426 738.715 274.09C742.621 279.754 748.383 282.586 756 282.586C759.027 282.586 762.641 282.098 766.84 281.121C771.039 280.145 776.752 277.703 783.979 273.797C791.303 269.891 800.971 263.543 812.982 254.754V350.115Z" fill="#00C0E8"/>
<defs>
<clipPath id="clip0_590_6664">
<rect width="838" height="315" fill="white" transform="translate(0 62)"/>
</clipPath>
</defs>
</svg>
